<svg xmlns="http://www.w3.org/2000/svg" xmlns:xlink="http://www.w3.org/1999/xlink" xmlns:xodm="http://www.corel.com/coreldraw/odm/2003" xml:space="preserve" version="1.1" style="shape-rendering:geometricPrecision;text-rendering:geometricPrecision;image-rendering:optimizeQuality;" viewBox="0 0 846.66 1058.325" x="0px" y="0px" fill-rule="evenodd" clip-rule="evenodd"><defs><style type="text/css">
   
    .fil0 {fill:black;fill-rule:nonzero}
   
  </style></defs><g><path class="fil0" d="M46.57 574.26l0 180.14 753.53 0 0 -180.14c-251.18,0 -502.35,0 -753.53,0zm236.23 29.7l281.05 0c10.07,0 19.2,4.11 25.81,10.72 6.61,6.61 10.72,15.76 10.72,25.81 0,10.08 -4.11,19.21 -10.72,25.82 -6.61,6.61 -15.74,10.72 -25.81,10.72l-281.05 0c-10.07,0 -19.2,-4.11 -25.81,-10.72 -6.61,-6.61 -10.72,-15.74 -10.72,-25.81 0,-10.06 4.11,-19.21 10.72,-25.82 6.61,-6.61 15.74,-10.72 25.81,-10.72zm281.05 25.4l-281.05 0c-3.04,0 -5.83,1.26 -7.85,3.28 -2.02,2.02 -3.28,4.81 -3.28,7.85 0,3.05 1.26,5.84 3.28,7.86 2.02,2.02 4.81,3.28 7.85,3.28l281.05 0c3.04,0 5.83,-1.26 7.85,-3.28 2.02,-2.02 3.28,-4.81 3.28,-7.85 0,-3.05 -1.26,-5.84 -3.28,-7.86 -2.02,-2.02 -4.81,-3.28 -7.85,-3.28zm-495.45 -80.5l0 -211.94c-13.66,-12.51 -24.35,-25.88 -32.07,-39.73 -12.54,-22.52 -17.25,-46.25 -14.22,-69.74 3.01,-23.28 13.6,-46.12 31.66,-67.04 14.8,-17.15 34.7,-33.08 59.58,-46.95 55.74,-31.07 127.29,-46.6 198.63,-46.6 20.39,0 40.82,1.27 60.87,3.81 36.57,-4.59 74.4,-4.97 111.18,-1.15 44.07,-4.59 89.67,-3.15 132.75,4.34 42.28,7.35 82.36,20.55 116.55,39.6 24.87,13.86 44.78,29.8 59.57,46.95 18.06,20.92 28.65,43.76 31.66,67.04 3.03,23.49 -1.68,47.22 -14.22,69.74 -7.72,13.85 -18.41,27.22 -32.07,39.73l0 211.94 34.53 0c7.01,0 12.7,5.69 12.7,12.7l0 205.54c0,7.01 -5.69,12.7 -12.7,12.7l-778.93 0c-7.01,0 -12.7,-5.69 -12.7,-12.7l0 -205.54c0,-7.01 5.69,-12.7 12.7,-12.7l34.53 0zm684.47 0l0 -217.58c0.05,-3.55 1.53,-7.07 4.42,-9.57 13.52,-11.66 23.84,-24.09 30.93,-36.82 9.85,-17.69 13.58,-36.16 11.24,-54.26 -2.36,-18.31 -10.97,-36.59 -25.7,-53.66 -12.91,-14.97 -30.53,-29.02 -52.73,-41.39 -31.57,-17.59 -68.9,-29.84 -108.51,-36.72 -5.49,-0.95 -11.01,-1.8 -16.58,-2.55 12.63,5.07 24.72,10.78 36.16,17.15 24.89,13.87 44.79,29.81 59.59,46.96 18.06,20.92 28.64,43.75 31.65,67.02 3.02,23.5 -1.69,47.23 -14.22,69.73 -7.72,13.86 -18.42,27.23 -32.08,39.75l0 211.94 75.83 0zm-101.23 0l0 -217.58c0.05,-3.55 1.53,-7.07 4.42,-9.57 13.52,-11.67 23.84,-24.09 30.94,-36.84 9.85,-17.68 13.57,-36.14 11.24,-54.25 -2.36,-18.3 -10.96,-36.57 -25.69,-53.64 -12.92,-14.97 -30.53,-29.02 -52.75,-41.4 -32.87,-18.31 -71.97,-30.84 -113.35,-37.56 -13.17,-2.14 -26.11,-3.62 -39.38,-4.58 15.31,5.75 29.91,12.41 43.56,20.02 24.88,13.87 44.78,29.8 59.58,46.95 18.06,20.93 28.65,43.76 31.66,67.04 3.03,23.49 -1.68,47.23 -14.23,69.74 -7.72,13.85 -18.41,27.22 -32.07,39.73l0 211.94 96.07 0zm-121.47 0l0 -217.58c0.05,-3.55 1.53,-7.07 4.42,-9.57 13.52,-11.66 23.84,-24.09 30.93,-36.82 9.85,-17.68 13.59,-36.16 11.25,-54.26 -2.36,-18.31 -10.97,-36.58 -25.7,-53.66 -12.92,-14.97 -30.53,-29.01 -52.74,-41.39 -51.82,-28.88 -118.98,-43.32 -186.35,-43.32 -67.35,0 -134.51,14.44 -186.33,43.32 -22.21,12.38 -39.82,26.42 -52.74,41.39 -14.73,17.07 -23.34,35.35 -25.7,53.66 -2.34,18.1 1.39,36.57 11.24,54.26 6.95,12.49 17.01,24.68 30.15,36.15 3.15,2.31 5.2,6.04 5.2,10.24l0 217.58 436.37 0zm-310.7 -179.67c4.95,4.95 4.95,13.01 0,17.96 -4.95,4.95 -13.01,4.95 -17.96,0l-0.1 -0.1c-4.95,-4.95 -4.95,-13.01 0,-17.96 4.95,-4.95 13.01,-4.95 17.96,0l0.1 0.1zm117.2 117.17c4.95,4.95 4.95,13.01 0,17.96 -4.95,4.95 -13.01,4.95 -17.96,0l-86.57 -86.57c-4.95,-4.95 -4.95,-13.01 0,-17.96 4.95,-4.95 13.01,-4.95 17.96,0l86.57 86.57zm67.82 -68.02c-4.95,-4.95 -4.95,-13.01 0,-17.96 4.95,-4.95 13.01,-4.95 17.96,0l0.1 0.1c4.95,4.95 4.95,13.01 0,17.96 -4.95,4.95 -13.01,4.95 -17.96,0l-0.1 -0.1zm-117.17 -117.2c-4.95,-4.95 -4.95,-13.01 0,-17.96 4.95,-4.95 13.01,-4.95 17.96,0l86.57 86.57c4.95,4.95 4.95,13.01 0,17.96 -4.95,4.95 -13.01,4.95 -17.96,0l-86.57 -86.57zm-68.59 17.3c-4.95,-4.95 -4.95,-13.01 0,-17.96 4.95,-4.95 13.01,-4.95 17.96,0l168.57 168.57c4.95,4.95 4.95,13.01 0,17.96 -4.95,4.95 -13.01,4.95 -17.96,0l-168.57 -168.57z"/></g><text x="0" y="861.66" fill="#000000" font-size="5px" font-weight="bold" font-family="'Helvetica Neue', Helvetica, Arial-Unicode, Arial, Sans-serif">Created by Isnaini</text><text x="0" y="866.66" fill="#000000" font-size="5px" font-weight="bold" font-family="'Helvetica Neue', Helvetica, Arial-Unicode, Arial, Sans-serif">from the Noun Project</text></svg>