<svg xmlns="http://www.w3.org/2000/svg" xmlns:xlink="http://www.w3.org/1999/xlink" version="1.1" x="0px" y="0px" viewBox="0 0 100 125" style="enable-background:new 0 0 100 100;" xml:space="preserve"><path d="M50.3,24.8c0.1,0.1,8.3,14.5,9.7,29.1c1,9.8,6.3,10.8,10.6,11.6c2.9,0.5,4.7,1,5.4,3l3.2,8.9l-5.3,1.9  c-0.5,0.2-0.8,0.8-0.6,1.3c0.1,0.4,0.5,0.7,0.9,0.7c0.1,0,0.2,0,0.3-0.1l12.5-4.6c0.5-0.2,0.8-0.8,0.6-1.3c-0.2-0.5-0.8-0.8-1.3-0.6  l-5.3,1.9l-3.2-8.9c-0.8-2.1,0.4-3.6,2.2-5.8c2.8-3.4,6.2-7.6,0.6-15.7C72.5,34.2,69.5,18,69.5,17.8c-0.1-0.3-0.2-0.5-0.5-0.7  c-0.3-0.1-0.6-0.2-0.8-0.1l-17.3,6.3c0,0,0,0,0,0c-0.1,0-0.1,0-0.2,0.1C50.2,23.7,50,24.3,50.3,24.8z M56.5,33.2c0.1,0,0.2,0,0.3,0  c0.7,0,1.4-0.1,2.3-0.4c2.2-0.8,3.1-2.2,3.9-3.4c0.7-1.1,1.3-2,2.8-2.6c1.6-0.6,2.6-0.2,3.9,0.1l0,0c1.8,5.9,4.8,13.7,9.4,20.4  c4.7,6.9,2.2,10-0.5,13.3c-1.1,1.4-2.3,2.8-2.7,4.4c-1.4-1-3.2-1.3-4.9-1.6c-4.2-0.8-8.1-1.5-9-9.8C61.2,46.1,58.8,38.8,56.5,33.2z   M52.6,24.8l15.1-5.5c0.2,1.1,0.7,3.1,1.3,5.4c-1.1-0.3-2.3-0.3-3.9,0.2c-2.2,0.8-3.1,2.2-3.9,3.4c-0.7,1.1-1.3,2-2.9,2.6  c-1.1,0.4-2,0.4-2.8,0.1C54.4,28.2,53.3,26,52.6,24.8z"/><path d="M67.2,48.2c-0.2,0.4-0.2,0.9-0.1,1.4c0.2,0.5,0.5,0.8,0.9,1l3.3,1.6c0.2,0.1,0.5,0.2,0.8,0.2c0.2,0,0.4,0,0.6-0.1  c0.5-0.2,0.8-0.5,1-0.9l1.6-3.3c0.4-0.9,0-2-0.9-2.4l-3.4-1.6c-0.4-0.2-0.9-0.2-1.4-0.1c-0.5,0.2-0.8,0.5-1,0.9L67.2,48.2z   M69.1,48.8l1.4-3l3,1.4l-1.4,3L69.1,48.8z"/><path d="M67.5,57.8l1.7,3.3c0.2,0.4,0.6,0.7,1.1,0.9c0.2,0.1,0.4,0.1,0.5,0.1c0.3,0,0.6-0.1,0.9-0.2l3.3-1.7  c0.9-0.5,1.2-1.6,0.7-2.5l-1.7-3.3c-0.2-0.4-0.6-0.7-1.1-0.9c-0.5-0.1-1-0.1-1.4,0.1l-3.3,1.7C67.3,55.8,67,56.9,67.5,57.8z   M69.3,57l2.9-1.6l1.6,2.9l-2.9,1.6L69.3,57z"/><path d="M62.1,36.9c-0.7,0.7-0.8,1.8-0.1,2.6l2.5,2.7c0.3,0.4,0.8,0.6,1.3,0.6c0,0,0.1,0,0.1,0c0.5,0,0.9-0.2,1.2-0.5l2.7-2.5  c0.4-0.3,0.6-0.8,0.6-1.3c0-0.5-0.1-0.9-0.5-1.3l-2.5-2.7c-0.7-0.7-1.8-0.8-2.6-0.1L62.1,36.9z M63.6,38.2l2.4-2.3l2.3,2.4l-2.4,2.3  L63.6,38.2z"/><path d="M47.7,18.2v-5.9c0-0.6,0.4-1,1-1s1,0.4,1,1v5.9c0,0.6-0.4,1-1,1S47.7,18.8,47.7,18.2z"/><path d="M44.6,20.7c-0.2,0-0.3,0-0.5-0.1L39,17.6c-0.5-0.3-0.6-0.9-0.4-1.4c0.3-0.5,0.9-0.6,1.4-0.4l5.1,2.9  c0.5,0.3,0.6,0.9,0.4,1.4C45.3,20.5,44.9,20.7,44.6,20.7z"/><path d="M50.4,32.2l-17.2-6.4c0,0,0,0,0,0c-0.1,0-0.1,0-0.2,0c-0.5-0.1-1.1,0.3-1.2,0.8c0,0.2-3.1,16.4-11.5,28.4  c-5.6,8.1-2.2,12.3,0.5,15.7c1.8,2.3,2.9,3.8,2.2,5.8l-3.3,8.9l-5.3-2c-0.5-0.2-1.1,0.1-1.3,0.6c-0.2,0.5,0.1,1.1,0.6,1.3l12.5,4.7  c0.1,0,0.2,0.1,0.3,0.1c0.4,0,0.8-0.2,0.9-0.7c0.2-0.5-0.1-1.1-0.6-1.3l-5.3-2l3.3-8.9c0.8-2.1,2.6-2.5,5.5-3  c4.3-0.8,9.6-1.7,10.7-11.5c1.5-14.6,9.8-28.9,9.9-29c0.1-0.3,0.2-0.6,0.1-0.8C50.9,32.5,50.7,32.3,50.4,32.2z M22,56.1  c4.3-6.2,7.3-13.4,9.1-19.1c0.5,0.5,1.3,1,2.3,1.4c2.2,0.8,3.8,0.3,5.1-0.1c1.2-0.4,2.3-0.7,3.8-0.1c1.6,0.6,2.2,1.5,2.8,2.6l0,0  c-2.4,5.6-5.2,13.5-6.1,21.6c-0.9,8.3-4.8,9-9,9.8c-1.8,0.3-3.5,0.6-4.9,1.6c-0.4-1.6-1.6-3-2.7-4.4C19.7,66.1,17.2,62.9,22,56.1z   M48.6,33.6c-0.6,1-1.5,2.8-2.5,5c-0.7-0.9-1.5-1.8-3.1-2.4c-2.2-0.8-3.8-0.3-5.1,0.1c-1.2,0.4-2.3,0.7-3.8,0.1  c-1.1-0.4-1.7-1-2.2-1.7c0.9-3,1.5-5.4,1.8-6.7L48.6,33.6z"/><path d="M34,66.3L28.8,57c-0.2-0.4-0.6-0.5-1.1-0.4c-0.4,0.1-0.9,0.3-1.3,0.5c-1.5,0.8-2.5,2.2-3,3.8c-0.4,1.6-0.2,3.3,0.6,4.8  c0.8,1.5,2.2,2.5,3.8,3c0.6,0.2,1.1,0.2,1.7,0.2c1.1,0,2.2-0.3,3.1-0.8c0.4-0.2,0.7-0.5,1-0.7C34.1,67.1,34.2,66.6,34,66.3z   M32,66.5c-0.1,0-0.1,0.1-0.2,0.1c-1,0.6-2.3,0.8-3.4,0.4c-1.2-0.3-2.1-1.1-2.7-2.1s-0.8-2.3-0.4-3.4c0.3-1.2,1.1-2.1,2.1-2.7  c0.1,0,0.2-0.1,0.2-0.1L32,66.5z"/><path d="M28.2,64.1l-0.4,0.2c-0.1,0.1-0.3,0.1-0.4,0.1c-0.3,0-0.5-0.1-0.7-0.4c-0.2-0.4-0.1-0.9,0.3-1.1l0.4-0.2  c0.4-0.2,0.9-0.1,1.1,0.3C28.7,63.4,28.6,63.9,28.2,64.1z"/><path d="M29.3,66.3c0,0-0.1,0-0.1,0c-0.4-0.1-0.7-0.5-0.7-0.9l0.1-0.7c0.1-0.4,0.5-0.7,0.9-0.7c0.4,0.1,0.7,0.5,0.7,0.9L30,65.6  C30,66,29.6,66.3,29.3,66.3z"/><path d="M27.4,62.3c-0.1,0-0.2,0-0.3-0.1L26.5,62c-0.4-0.2-0.6-0.6-0.4-1c0.2-0.4,0.6-0.6,1-0.4l0.6,0.2c0.4,0.2,0.6,0.6,0.4,1  C28,62.1,27.7,62.3,27.4,62.3z"/><path d="M33,58c1.6,0,3.1-0.6,4.3-1.7c1.2-1.1,2-2.7,2-4.4c0.1-3.5-2.6-6.4-6.1-6.6c-0.4,0-0.9,0-1.3,0.1c-0.4,0.1-0.7,0.4-0.8,0.8  l-0.5,10.6c0,0.4,0.3,0.8,0.7,0.9c0.4,0.1,0.9,0.2,1.4,0.2C32.9,58,33,58,33,58z M36.1,55c-0.9,0.8-2,1.2-3.2,1.2  c-0.1,0-0.2,0-0.3,0l0.4-9c0,0,0,0,0,0c0.1,0,0.1,0,0.2,0c2.5,0.1,4.4,2.2,4.3,4.7C37.5,53.1,37,54.2,36.1,55z"/><path d="M34.9,52.8c-0.4,0-0.8-0.4-0.8-0.8c0-0.4,0.4-0.8,0.8-0.8l0.5,0c0.4,0,0.8,0.4,0.8,0.8c0,0.4-0.4,0.8-0.8,0.8c0,0,0,0,0,0  L34.9,52.8z"/><path d="M35,50.5c-0.2,0.2-0.4,0.3-0.6,0.3c-0.2,0-0.4-0.1-0.5-0.2c-0.3-0.3-0.4-0.8-0.1-1.1l0.4-0.5c0.3-0.3,0.8-0.4,1.1-0.1  c0.3,0.3,0.4,0.8,0.1,1.1L35,50.5z"/><path d="M34.9,53.4l0.4,0.5c0.3,0.4,0.2,0.9-0.2,1.1c-0.1,0.1-0.3,0.1-0.5,0.1c-0.3,0-0.5-0.1-0.7-0.3l-0.4-0.5  c-0.3-0.4-0.2-0.9,0.2-1.1C34.2,52.9,34.7,53,34.9,53.4z"/><text x="0" y="115" fill="#000000" font-size="5px" font-weight="bold" font-family="'Helvetica Neue', Helvetica, Arial-Unicode, Arial, Sans-serif">Created by Made by Made</text><text x="0" y="120" fill="#000000" font-size="5px" font-weight="bold" font-family="'Helvetica Neue', Helvetica, Arial-Unicode, Arial, Sans-serif">from the Noun Project</text></svg>