<svg xmlns="http://www.w3.org/2000/svg" xmlns:xlink="http://www.w3.org/1999/xlink" version="1.1" x="0px" y="0px" viewBox="0 0 512 640" style="enable-background:new 0 0 512 512;" xml:space="preserve"><style type="text/css">
	.st0{display:none;}
	.st1{display:inline;}
</style><g><g><path d="M505.742,387.102c1.46-9.475,0.097-17.156-4.063-22.852c-1.775-2.431-3.816-4.15-5.76-5.364    c3.439-9.047,6.243-26.876-8.139-52.104c-9.065-15.9-23.526-24.021-41.759-23.486c-6.957,0.204-13.177,1.657-17.579,3.021    c-4.229-10.554-14.842-19.372-28.027-22.636c-3.425-0.848-6.831-1.294-10.188-1.368v-23.921c0-3.313-2.687-6-6-6s-6,2.687-6,6    v25.321c-6.951,1.817-13.464,5.363-19.192,10.497v-82.369l19.192-11.948v12.5c0,3.313,2.687,6,6,6s6-2.687,6-6v-23.303    c0-2.179-1.182-4.187-3.087-5.245c-1.904-1.059-4.233-1-6.084,0.151l-17.835,11.103c6.116-35.252-13.562-55.324-23.238-62.849    c-11.384-8.852-25.34-13.642-38.229-13.939c4.901-6.968,8.283-14.718,10.296-22.791c3.248-12.852,3.204-26.34,1.159-38.068    c-0.402-2.904-3.209-5.216-6.134-5.049c-2.471,0.074-46.509,1.857-57.321,34.292c-6.175,18.526-3.478,33.653-0.057,43.19    c-2.741-1.562-5.607-3.308-8.6-5.284c-10.835-7.151-25.888-8.245-40.537-3.84c-3.746-4.157-9.326-7.729-17.161-11.023    c-0.657-0.276-1.305-0.541-1.945-0.797c1.369-1.534,2.521-3.099,3.454-4.529c5.077,1.788,9.392,1.321,12.422,0.418    c7.485-2.231,12.561-8.492,15.338-12.929c4.065,0.719,9.875,0.89,15.444-1.982c6.121-3.156,10.229-9.034,12.21-17.471    c2.427-10.338-1.717-20.007-11.086-25.864c-11.393-7.122-31.363-8.281-45.933,3.598c-4.487,3.659-8.593,8.348-12.285,13.454    c-1.89-7.724-4.375-14.259-7.437-19.523c-9.453-16.249-28.551-22.195-41.722-19.544c-10.832,2.182-18.116,9.772-19.485,20.303    c-1.117,8.594,0.658,15.542,5.275,20.651c4.201,4.649,9.699,6.536,13.756,7.294c1.037,5.131,3.583,12.778,9.803,17.502    c2.518,1.913,6.391,3.869,11.773,3.983c0.438,1.974,1.095,4.231,2.069,6.517c-1.435-0.085-2.93-0.15-4.486-0.181    c-11.716-0.245-19.476,1.83-24.763,5.681c-2.508-2.969-5.432-4.653-8.088-5.494c-2.681-7.538-9.895-17.419-24.744-18.754    c-4.555-0.408-8.655,0.955-11.861,3.943c-2.525,2.353-4.193,5.479-5.298,8.652c-3.479-3.265-7.328-6.001-11.561-7.828    c-8.901-3.841-18.193-3.358-27.618,1.432c-9.771,4.967-15.781,12.346-17.864,21.932c-4.286,19.721,10.203,42.976,16.46,51.851    c-2.767,4.524-6.332,12.449-5.1,21.921c0.223,1.714,0.604,3.394,1.111,5.046l-8.071-5.026c-1.85-1.152-4.179-1.209-6.085-0.152    C5.182,164.901,4,166.909,4,169.088v332.648c0,3.313,2.687,6,6,6l394.709,0c56.786,0,102.997-46.141,103.115-102.901    C508.374,397.563,507.676,391.637,505.742,387.102z M357.474,495.469c-40.785-3.026-73.762-31.533-81.805-70.787    c0.637,0.646,1.135,1.422,1.338,1.84c1.079,2.387,3.523,4.04,6.129,3.731c2.562-0.31,4.578-1.98,5.098-4.491    c0.346-0.753,2.688-4.896,12.286-4.896c11.718,0,19.079,12.696,19.141,12.803c0.837,1.5,2.285,2.563,3.964,2.931    c1.677,0.366,3.442-0.009,4.829-1.021c0.139-0.102,14.074-10.116,29.185-6.844c8.751,1.894,16.456,7.936,22.943,17.98    C369.611,459.648,361.614,476.348,357.474,495.469z M295.086,326.875c-0.126-1.204-2.788-29.616,23.828-40.371    c18.691-7.554,35.315,7.895,43.421,17.547c-11.793,3.477-22.613,9.801-31.646,18.683c-1.554-0.574-3.252-0.971-5.117-1.141    c-9.052-0.814-19.61,5.479-27.536,16.449c-9.411,13.026-12.245,28.54-7.988,42.393c-6.043,2.8-9.23,7.494-10.702,11.681    c-1.267,0.21-2.666,0.551-4.106,1.086c-5.396-4.002-10.347-15.87-9.738-28.595c0.445-9.29,4.308-25.707,25.17-31.29    C293.523,332.556,295.394,329.811,295.086,326.875z M327.844,179.891l19.192,11.948v84.627c-5.801-2.69-12.25-4.337-19.192-4.051    V179.891z M386.022,373.382c-0.872,0.394-1.82,0.873-2.812,1.437c-3.05-10.114-8.286-17.722-15.652-22.663    c-7.863-5.275-16.37-6.223-22.191-6.069c-0.609-5.184-2.175-11.025-5.301-15.714c13.977-13.185,32.786-19.326,52.399-16.928    c14.35,1.755,27.522,8.075,35.073,16.437c-1.109,0.639-2.122,1.327-3.017,2.026c-13.25-0.393-23.401,3.312-30.144,11.034    C385.879,352.678,385.471,366.072,386.022,373.382z M301.924,378.2c-3.747-10.563-1.632-22.788,5.84-33.129    c5.806-8.035,12.79-11.882,16.723-11.525c9.611,0.874,9.177,18.764,9.17,18.93c-0.083,1.875,0.733,3.677,2.177,4.877    c1.444,1.199,3.385,1.648,5.211,1.224c0.109-0.025,10.979-2.463,19.931,3.614c6.043,4.101,10.081,11.277,12.036,21.338    c-4.052,5.047-7.941,12.676-9.083,23.875c-5.461-12.104-14.029-17.612-19.563-20.012c-9.626-4.175-19.389-3.636-26.297-1.061    C314.427,382.493,308.874,378.734,301.924,378.2z M274.489,411.637c0.276-2.119,0.936-4.091,2.251-5.465    c2.556-2.671,6.882-2.361,6.896-2.361c1.679,0.177,3.35-0.356,4.611-1.475c1.263-1.117,1.996-2.714,2.021-4.399    c0.001-0.049,0.14-4.935,5.678-6.976c9.176-3.379,14.678,5.052,15.252,5.987c0.852,1.435,2.263,2.451,3.894,2.803    c1.632,0.353,3.336,0.009,4.703-0.947c3.297-2.302,11.617-3.951,19.794-0.405c7.013,3.042,12.066,9.13,14.891,17.797    c-11.753-0.861-22.027,3.346-27.916,6.506c-4.561-5.621-13.392-13.837-26.044-13.837c-9.012,0-14.722,2.686-18.284,5.669    c-1.187-0.888-2.57-1.67-4.161-2.206C277.082,411.997,275.873,411.72,274.489,411.637z M376.365,424.452    c-5.06-35.75,16.486-40.935,17.367-41.129c1.569-0.309,2.949-1.232,3.835-2.563s1.204-2.961,0.883-4.527    c-0.032-0.16-3.044-16.22,4.968-25.398c4.572-5.237,12.254-7.535,22.843-6.829c1.758,0.118,3.426-0.5,4.651-1.754    c0.73-0.718,3.161-2.863,6.635-3.481c0.173-0.018,0.344-0.048,0.516-0.081c2.887-0.373,6.434,0.344,10.298,3.714    c9.442,8.234,11.339,27.551,11.282,34.553c-4.128-0.037-8.059,0.698-11.767,2.227c-8.599,3.544-13.716,10.494-16.297,15.068    c-4.763-0.205-12.188,0.514-18.898,5.549c-8.067,6.053-12.693,16.368-13.781,30.679c-3.416,2.217-6.676,4.707-9.761,7.454    C385.278,432.394,381.01,427.901,376.365,424.452z M419.782,409.475c6.13-4.68,13.843-2.954,13.874-2.949    c2.956,0.742,6.02-0.89,7.09-3.75c0.034-0.091,3.515-9.179,11.792-12.535c5.563-2.257,12.353-1.52,20.18,2.188    c1.814,0.86,3.939,0.755,5.661-0.281c3.355-2.017,11.02-4.917,14.394-2.832c1.884,1.166,2.985,4.38,3.199,9.085    c-10.634,0.804-16.758,7.783-19.608,13.912c-8.501,0.752-14.18,5.798-17.426,10.689c-15.508-5.554-31.787-5.288-46.969,0.712    C413.425,417.161,416.062,412.315,419.782,409.475z M384.706,274.662c0.18-0.014,0.357-0.038,0.532-0.067    c5.148-0.636,9.554,0.056,12.295,0.734c11.146,2.759,19.899,10.98,20.813,19.547c0.205,1.926,1.334,3.631,3.021,4.584    c1.687,0.953,3.735,1.03,5.491,0.213c1.39-0.646,34.214-15.511,50.497,13.052c16.836,29.532,5.959,45.011,5.538,45.59    c-1.351,1.741-1.757,4.069-0.868,6.085c0.881,1.999,2.662,3.349,4.833,3.544c0.452,0.087,3.276,0.729,5.24,3.537    c1.024,1.464,1.674,3.361,1.985,5.599c-6.761-1.548-13.984,0.939-18.252,2.896c-0.455-2.136-1.359-3.969-2.742-5.456    c-0.491-0.527-1.016-0.979-1.56-1.366c-0.479-8.771-2.944-29.037-15.282-39.796c-5.561-4.85-11.1-6.7-16.113-6.821    c-8.786-12.934-26.412-22.581-46.214-25.003c-6.23-0.762-12.392-0.791-18.395-0.129c-2.429-3.365-6.738-8.81-12.546-14.084    C370.096,278.861,377.994,275.604,384.706,274.662z M277.37,104.537c-2.971,1.807-5.727,3.247-8.333,4.349    c1.775-4.941,4.358-11.396,7.887-18.63l19.215-5.927c-3.449,7.004-8.429,13.313-15.304,18.232    C279.636,103.157,278.477,103.812,277.37,104.537z M300.964,70.282l-15.78,4.868c4.755-7.785,10.514-15.85,17.429-23.506    C302.791,57.77,302.302,64.107,300.964,70.282z M261.141,70.488c4.547-13.642,18.108-20.171,29.389-23.285    c-16.204,19.028-25.925,39.508-31.178,53.14C257.626,92.851,257.099,82.612,261.141,70.488z M234.275,114.476    c3.491,2.773,6.899,4.813,10.223,6.256c23.966,13.49,39.286,13.675,40.008,13.675c3.296,0,5.952-2.659,5.978-5.956    c0.024-3.296-2.638-5.995-5.933-6.044c-0.082-0.001-4.145-0.114-11.306-2.214c3.649-1.527,7.138-3.438,10.458-5.462    c1-0.746,2.254-0.967,3.229-1.792c12.34-5.688,31.588-2.179,45.687,8.784c17.27,13.43,23.412,34.237,17.342,57.803l-24.947-15.53    c-1.899-1.195-4.443-1.196-6.342,0l-28.018,17.444l-28.016-17.444c-1.941-1.209-4.401-1.209-6.342,0l-28.016,17.444    l-28.016-17.444c-1.941-1.209-4.402-1.209-6.343,0l-25.433,15.838c-6.22-23.74-0.056-44.714,17.364-58.192    C201.066,109.872,222.266,106.753,234.275,114.476z M190.89,39.482c9.874-8.05,24.018-7.705,31.988-2.723    c3.502,2.189,7.346,6.213,5.765,12.945c-1.135,4.833-3.145,8.036-5.974,9.521c-4.657,2.443-10.724,0.114-10.746,0.106    c-3.006-1.228-6.451,0.176-7.765,3.145c-1.11,2.506-5.121,9.343-10.281,10.861c-2.475,0.728-5.142,0.119-8.155-1.862    c-1.487-0.978-3.331-1.246-5.036-0.729c-1.703,0.516-3.09,1.762-3.785,3.4c-0.896,2.112-4.284,8.076-8.845,10.375    c-1.935-0.504-3.458-0.841-4.483-1.05C168.706,70.237,179.002,48.983,190.89,39.482z M138.492,60.781    c-4.295-3.238-5.641-11.05-5.796-13.766c-0.16-3.197-2.844-5.7-6.036-5.7c-0.028,0-0.056,0-0.084,0    c-0.079-0.007-6.565,0.042-10.062-3.883c-2.125-2.386-2.878-6.092-2.238-11.014c0.892-6.858,5.906-9.27,9.955-10.086    c9.216-1.854,22.574,2.803,28.98,13.814c3.871,6.654,6.781,16.541,8.455,28.67c-2.631,4.943-4.87,9.754-6.686,13.973    c-0.577-2.177-0.832-4.16-0.886-5.274c-0.073-1.778-0.933-3.432-2.345-4.515s-3.234-1.483-4.969-1.091    C143.263,62.703,140.553,62.334,138.492,60.781z M140.322,92.636c11.232,0.23,19.239,2.267,19.31,2.285    c0.793,0.211,8.192,1.316,19.117,5.876c3.934,1.655,7.088,3.329,9.508,5.048c-3.369,1.797-6.64,3.9-9.747,6.304    c-9.665,7.478-29.346,27.436-23.435,62.54l-17.173-10.695c-1.942-1.209-4.402-1.209-6.344,0l-19.904,12.396    c0.147-6.513,0.434-15.002,0.887-23.83c6.515,0.114,17.318,0.557,24.667,2.168c7.526,1.802,10.231-10.165,2.57-11.722    c-8.165-1.791-19.48-2.302-26.521-2.439c0.534-7.762,1.143-14.34,2.01-21.107c7.273-0.107,20.672-0.046,28.307,1.576    c7.539,1.752,10.163-10.232,2.493-11.738c-8.103-1.721-20.93-1.93-28.978-1.863c0.73-3.515,1.551-5.844,3.063-8.412    C123.367,94.039,129,92.402,140.322,92.636z M84.133,169.347l12.037-37.741c1.768,1.485,3.572,3.359,5.293,5.718    c-0.209,2.843-0.399,5.739-0.571,8.64c-0.005,0.057-0.006,0.116-0.01,0.173c-0.728,12.326-1.134,24.669-1.282,32.841    L84.133,169.347z M81.9,74.024c12.775,1.148,14.884,11.806,15.075,12.962c0.232,1.615,0.863,3.1,2.187,4.052    c1.295,0.931,2.667,1.34,4.227,1.083c0.713,0.036,2.958,0.47,4.674,4.228c-2.889,6.688-3.917,15.141-5.072,24.651    c-0.026,0.212-0.05,0.433-0.076,0.647c-4.22-3.33-8.877-5.621-13.479-6.873c-1.978-5.744-6.523-17.511-13.726-28.232    c0.195-3.602,1.154-9.485,3.582-11.748C79.804,74.318,80.475,73.894,81.9,74.024z M49.485,77.852    c15.643,6.738,26.651,33.907,29.571,43.803c0.854,2.934,3.312,4.25,6.271,4.451l-9.146,28.677l-41.45-76.999    C39.898,75.788,44.749,75.811,49.485,77.852z M20.5,92.736c0.689-3.159,2.082-5.904,4.195-8.28l43.24,80.324l-24.064,14.985    c-7.02-5.359-10.995-11.142-11.825-17.226c-1.248-9.143,5.036-16.547,5.076-16.594c1.928-2.179,2.013-5.431,0.203-7.71    C31.489,130.881,17.089,108.374,20.5,92.736z M16,179.893L38.011,193.6c1.942,1.209,4.402,1.209,6.343,0l28.012-17.443    l28.013,17.443c1.941,1.209,4.402,1.209,6.343,0l28.007-17.443l28.01,17.443c1.942,1.209,4.401,1.209,6.344,0l28.011-17.443    L225.11,193.6c1.941,1.209,4.401,1.209,6.343,0l28.016-17.444l28.015,17.444c1.943,1.209,4.401,1.209,6.343,0l22.018-13.708    v94.944c-25.355,9.064-33.122,33.771-32.932,48.356c-17.819,6.486-28.451,21.135-29.396,40.843    c-0.707,14.742,4.364,29.1,12.257,36.774c-3.042,4.791-4.08,11.149-3.086,18.965c0,0.005,0.002,0.009,0.002,0.013    c0,0.003,0,0.007,0,0.01c3.219,24.517,15.262,46.881,33.91,62.973c5.862,5.058,12.277,9.387,19.092,12.967H16V179.893z     M404.709,495.736h-34.981c6.319-26.391,21.219-47.824,40.714-58.14c15.488-8.195,32.855-8.728,48.897-1.5    c1.562,0.704,3.342,0.733,4.906,0.033s2.746-2.008,3.263-3.642c0.315-0.932,3.345-9.073,12.509-8.199    c3.006,0.284,5.753-1.656,6.416-4.606c0.365-1.495,2.307-7.819,9.202-9.112C492.559,458.049,452.952,495.736,404.709,495.736z"/><path d="M228.791,272.167c-2.008-3.645-7.613-3.981-9.91-0.479c-0.565,0.669-8.156,9.264-35.157,22.663    c-3.675,1.824-7.102,3.759-10.306,5.792c-32.38-18.055-75.228-7.663-77.098-7.195c-2.189,0.546-3.959,2.38-4.418,4.59    c-0.164,0.784-3.953,19.454,2.296,41.589c5.786,20.493,21.543,47.865,63.72,62.002c1.353,0.433,1.609,0.377,3.323,0.4    c4.23,0,17.128-0.429,31.33-5.133c23.063-7.64,38.458-22.883,44.541-44.082c0.01-0.032,0.021-0.063,0.03-0.095    c0.006-0.022,0.014-0.043,0.021-0.066c12.455-43.818-7.459-78.444-8.313-79.897C228.833,272.225,228.81,272.198,228.791,272.167z     M224.723,293.638c3.79,12.386,6.972,31.207,1.648,52.421c-10.734,4.151-21.048,6.304-28.532,7.413    C211.69,329.73,220.083,307.932,224.723,293.638z M189.059,305.1c10.146-5.035,17.786-9.477,23.519-13.218    c-7.189,21.357-22.606,58.523-51.178,92.859c-7.955-17.516-9.925-32.892-5.812-45.782    C160.047,324.031,174.55,312.061,189.059,305.1z M161.942,308.768c-7.177,6.369-13.001,14.265-16.329,22.578    c-0.373-0.263-0.742-0.52-1.119-0.791V302.95c6.115,1.001,12.289,2.643,18.123,5.21    C162.389,308.359,162.167,308.566,161.942,308.768z M132.493,301.725v19.595c-8.026-6.512-15.924-13.478-21.688-18.694    C116.655,301.911,124.25,301.357,132.493,301.725z M105.879,336.325c-2.732-9.455-3.334-18.29-3.233-24.883    c10.034,9.093,26.523,23.472,39.587,32.134c-0.601,3.826-0.824,7.779-0.668,11.854c0.377,9.926,2.934,19.631,6.583,28.852    C126.245,373.775,112.052,357.692,105.879,336.325z M189.125,384.896c-5.466,1.837-10.762,2.945-15.3,3.617    c5.885-7.335,11.196-14.736,15.984-22.052c5.484-0.397,17.215-1.68,30.868-5.775C214.243,371.882,203.682,380.004,189.125,384.896    z"/><path d="M473.062,266.084c0.852,0.419,1.755,0.618,2.644,0.618c2.215,0,4.345-1.231,5.389-3.353l4.426-8.997    c1.463-2.974,0.238-6.57-2.735-8.032c-2.974-1.463-6.569-0.237-8.032,2.735l-4.426,8.997    C468.863,261.025,470.088,264.622,473.062,266.084z"/><path d="M447.715,261.194c2.448,7.435,13.967,3.44,11.359-3.868l-3.232-9.491c-1.067-3.137-4.476-4.812-7.614-3.746    c-3.137,1.068-4.813,4.477-3.745,7.614L447.715,261.194z"/><path d="M485.453,279.758c1.062,3.168,4.561,4.81,7.614,3.746l9.491-3.232c3.137-1.068,4.813-4.477,3.745-7.614    c-1.067-3.138-4.475-4.812-7.614-3.746l-9.491,3.232C486.062,273.212,484.385,276.621,485.453,279.758z"/><circle cx="384.229" cy="215.391" r="6"/></g></g><text x="0" y="527" fill="#000000" font-size="5px" font-weight="bold" font-family="'Helvetica Neue', Helvetica, Arial-Unicode, Arial, Sans-serif">Created by Setitik pixel</text><text x="0" y="532" fill="#000000" font-size="5px" font-weight="bold" font-family="'Helvetica Neue', Helvetica, Arial-Unicode, Arial, Sans-serif">from the Noun Project</text></svg>